<mxfile host="app.diagrams.net" agent="Mozilla/5.0 (Windows NT 10.0; Win64; x64) AppleWebKit/537.36 (KHTML, like Gecko) Chrome/131.0.0.0 Safari/537.36 Edg/131.0.0.0" version="25.0.3">
  <diagram name="Page-1" id="wEo7GRMiUEFesCKRziyc">
    <mxGraphModel dx="1209" dy="709" grid="1" gridSize="10" guides="1" tooltips="1" connect="1" arrows="1" fold="1" page="1" pageScale="1" pageWidth="850" pageHeight="1100" math="0" shadow="0">
      <root>
        <mxCell id="0" />
        <mxCell id="1" parent="0" />
        <mxCell id="0rmsTzh54dzMcpxlMXlA-10" style="rounded=0;orthogonalLoop=1;jettySize=auto;html=1;entryX=0.75;entryY=1;entryDx=0;entryDy=0;exitX=0.745;exitY=0.032;exitDx=0;exitDy=0;exitPerimeter=0;" parent="1" source="0rmsTzh54dzMcpxlMXlA-1" target="0rmsTzh54dzMcpxlMXlA-3" edge="1">
          <mxGeometry relative="1" as="geometry" />
        </mxCell>
        <mxCell id="0rmsTzh54dzMcpxlMXlA-11" value="Thông báo lỗi đăng nhập" style="edgeLabel;html=1;align=center;verticalAlign=middle;resizable=0;points=[];" parent="0rmsTzh54dzMcpxlMXlA-10" vertex="1" connectable="0">
          <mxGeometry x="-0.4134" relative="1" as="geometry">
            <mxPoint as="offset" />
          </mxGeometry>
        </mxCell>
        <mxCell id="0rmsTzh54dzMcpxlMXlA-1" value="Đăng nhập" style="ellipse;whiteSpace=wrap;html=1;" parent="1" vertex="1">
          <mxGeometry x="170" y="220" width="120" height="80" as="geometry" />
        </mxCell>
        <mxCell id="0rmsTzh54dzMcpxlMXlA-25" style="rounded=0;orthogonalLoop=1;jettySize=auto;html=1;entryX=0.75;entryY=0;entryDx=0;entryDy=0;" parent="1" source="0rmsTzh54dzMcpxlMXlA-2" target="0rmsTzh54dzMcpxlMXlA-23" edge="1">
          <mxGeometry relative="1" as="geometry" />
        </mxCell>
        <mxCell id="0rmsTzh54dzMcpxlMXlA-26" value="Thông tin mới" style="edgeLabel;html=1;align=center;verticalAlign=middle;resizable=0;points=[];" parent="0rmsTzh54dzMcpxlMXlA-25" vertex="1" connectable="0">
          <mxGeometry x="-0.106" y="2" relative="1" as="geometry">
            <mxPoint x="-7" y="-15" as="offset" />
          </mxGeometry>
        </mxCell>
        <mxCell id="0rmsTzh54dzMcpxlMXlA-2" value="Chỉnh sửa thông tin tài khoản" style="ellipse;whiteSpace=wrap;html=1;" parent="1" vertex="1">
          <mxGeometry x="590" y="230" width="120" height="80" as="geometry" />
        </mxCell>
        <mxCell id="0rmsTzh54dzMcpxlMXlA-8" style="rounded=0;orthogonalLoop=1;jettySize=auto;html=1;entryX=0;entryY=0;entryDx=0;entryDy=0;exitX=0.156;exitY=0.98;exitDx=0;exitDy=0;exitPerimeter=0;" parent="1" source="0rmsTzh54dzMcpxlMXlA-3" target="0rmsTzh54dzMcpxlMXlA-1" edge="1">
          <mxGeometry relative="1" as="geometry" />
        </mxCell>
        <mxCell id="0rmsTzh54dzMcpxlMXlA-9" value="Thông tin đăng nhập" style="edgeLabel;html=1;align=center;verticalAlign=middle;resizable=0;points=[];" parent="0rmsTzh54dzMcpxlMXlA-8" vertex="1" connectable="0">
          <mxGeometry x="-0.1377" relative="1" as="geometry">
            <mxPoint as="offset" />
          </mxGeometry>
        </mxCell>
        <mxCell id="0rmsTzh54dzMcpxlMXlA-3" value="Quản lí" style="rounded=0;whiteSpace=wrap;html=1;" parent="1" vertex="1">
          <mxGeometry x="170" y="70" width="120" height="60" as="geometry" />
        </mxCell>
        <mxCell id="0rmsTzh54dzMcpxlMXlA-16" style="rounded=0;orthogonalLoop=1;jettySize=auto;html=1;entryX=0.5;entryY=0;entryDx=0;entryDy=0;" parent="1" source="0rmsTzh54dzMcpxlMXlA-5" target="0rmsTzh54dzMcpxlMXlA-2" edge="1">
          <mxGeometry relative="1" as="geometry" />
        </mxCell>
        <mxCell id="0rmsTzh54dzMcpxlMXlA-17" value="Thông tin mới" style="edgeLabel;html=1;align=center;verticalAlign=middle;resizable=0;points=[];" parent="0rmsTzh54dzMcpxlMXlA-16" vertex="1" connectable="0">
          <mxGeometry x="0.0332" y="-2" relative="1" as="geometry">
            <mxPoint y="-1" as="offset" />
          </mxGeometry>
        </mxCell>
        <mxCell id="0rmsTzh54dzMcpxlMXlA-5" value="Quản lí" style="rounded=0;whiteSpace=wrap;html=1;" parent="1" vertex="1">
          <mxGeometry x="590" y="70" width="120" height="60" as="geometry" />
        </mxCell>
        <mxCell id="0rmsTzh54dzMcpxlMXlA-20" style="edgeStyle=orthogonalEdgeStyle;rounded=0;orthogonalLoop=1;jettySize=auto;html=1;entryX=0.003;entryY=0.376;entryDx=0;entryDy=0;entryPerimeter=0;" parent="1" source="0rmsTzh54dzMcpxlMXlA-1" target="0rmsTzh54dzMcpxlMXlA-2" edge="1">
          <mxGeometry relative="1" as="geometry" />
        </mxCell>
        <mxCell id="0rmsTzh54dzMcpxlMXlA-21" value="Thông tin tài khoản" style="edgeLabel;html=1;align=center;verticalAlign=middle;resizable=0;points=[];" parent="0rmsTzh54dzMcpxlMXlA-20" vertex="1" connectable="0">
          <mxGeometry x="-0.0223" y="1" relative="1" as="geometry">
            <mxPoint y="-9" as="offset" />
          </mxGeometry>
        </mxCell>
        <mxCell id="0rmsTzh54dzMcpxlMXlA-27" style="rounded=0;orthogonalLoop=1;jettySize=auto;html=1;entryX=1;entryY=1;entryDx=0;entryDy=0;exitX=0.167;exitY=0;exitDx=0;exitDy=0;exitPerimeter=0;" parent="1" source="0rmsTzh54dzMcpxlMXlA-23" target="0rmsTzh54dzMcpxlMXlA-1" edge="1">
          <mxGeometry relative="1" as="geometry" />
        </mxCell>
        <mxCell id="0rmsTzh54dzMcpxlMXlA-28" value="Xác thực" style="edgeLabel;html=1;align=center;verticalAlign=middle;resizable=0;points=[];" parent="0rmsTzh54dzMcpxlMXlA-27" vertex="1" connectable="0">
          <mxGeometry x="0.132" y="-2" relative="1" as="geometry">
            <mxPoint as="offset" />
          </mxGeometry>
        </mxCell>
        <mxCell id="0rmsTzh54dzMcpxlMXlA-23" value="Danh sách tài khoản" style="shape=partialRectangle;whiteSpace=wrap;html=1;left=0;right=0;fillColor=none;" parent="1" vertex="1">
          <mxGeometry x="390" y="340" width="120" height="60" as="geometry" />
        </mxCell>
      </root>
    </mxGraphModel>
  </diagram>
</mxfile>
